<svg width="16" height="17" viewBox="0 0 16 17" xmlns="http://www.w3.org/2000/svg">
<path d="M12.736 4.68273C12.8042 4.61344 12.8857 4.55839 12.9756 4.52081C13.0655 4.48322 13.162 4.46387 13.2595 4.46387C13.357 4.46387 13.4535 4.48322 13.5434 4.52081C13.6333 4.55839 13.7147 4.61344 13.783 4.68273C14.069 4.97033 14.073 5.43506 13.793 5.72763L7.87998 12.6837C7.81285 12.757 7.73138 12.816 7.64056 12.8569C7.54974 12.8979 7.45148 12.92 7.35179 12.9218C7.2521 12.9237 7.15307 12.9053 7.06077 12.8678C6.96847 12.8302 6.88483 12.7744 6.81498 12.7036L3.21698 9.07528C3.07822 8.93445 3.00049 8.74509 3.00049 8.54786C3.00049 8.35062 3.07822 8.16126 3.21698 8.02043C3.28523 7.95114 3.36668 7.89609 3.45657 7.8585C3.54646 7.82092 3.64298 7.80157 3.74048 7.80157C3.83798 7.80157 3.9345 7.82092 4.02439 7.8585C4.11428 7.89609 4.19573 7.95114 4.26398 8.02043L7.31598 11.0984L12.716 4.70463C12.7222 4.69693 12.7289 4.68962 12.736 4.68273Z"/>
</svg>
